<?xml version="1.0" encoding="UTF-8"?>
<!DOCTYPE svg PUBLIC "-//W3C//DTD SVG 1.1//EN" "http://www.w3.org/Graphics/SVG/1.1/DTD/svg11.dtd">
<svg xmlns="http://www.w3.org/2000/svg" version="1.1" width="976px" height="604px" style="shape-rendering:geometricPrecision; text-rendering:geometricPrecision; image-rendering:optimizeQuality; fill-rule:evenodd; clip-rule:evenodd" xmlns:xlink="http://www.w3.org/1999/xlink">
<g><path style="opacity:1" fill="#001d3d" d="M -0.5,-0.5 C 324.833,-0.5 650.167,-0.5 975.5,-0.5C 975.5,200.833 975.5,402.167 975.5,603.5C 650.167,603.5 324.833,603.5 -0.5,603.5C -0.5,402.167 -0.5,200.833 -0.5,-0.5 Z"/></g>
<g><path style="opacity:1" fill="#fbfcfd" d="M 258.5,152.5 C 298.574,150.449 324.407,168.449 336,206.5C 339.917,234.435 331.084,257.269 309.5,275C 272.514,296.401 240.68,290.568 214,257.5C 194.46,221.058 200.627,189.892 232.5,164C 240.649,158.754 249.315,154.921 258.5,152.5 Z"/></g>
<g><path style="opacity:1" fill="#6363ec" d="M 168.5,268.5 C 124.33,268.832 80.3302,268.499 36.5,267.5C 57.3115,229.206 79.1449,191.539 102,154.5C 124.935,192.035 147.102,230.035 168.5,268.5 Z"/></g>
<g><path style="opacity:1" fill="#7d8b9c" d="M 531.5,229.5 C 533.833,229.5 536.167,229.5 538.5,229.5C 538.5,262.167 538.5,294.833 538.5,327.5C 536.167,327.5 533.833,327.5 531.5,327.5C 531.5,294.833 531.5,262.167 531.5,229.5 Z"/></g>
<g><path style="opacity:1" fill="#fbfcfc" d="M 532.5,230.5 C 534.167,230.5 535.833,230.5 537.5,230.5C 537.5,262.5 537.5,294.5 537.5,326.5C 535.833,326.5 534.167,326.5 532.5,326.5C 532.5,294.5 532.5,262.5 532.5,230.5 Z"/></g>
<g><path style="opacity:1" fill="#a1abb7" d="M 824.5,231.5 C 823.167,231.5 821.833,231.5 820.5,231.5C 820.5,259.5 820.5,287.5 820.5,315.5C 820.167,315.5 819.833,315.5 819.5,315.5C 819.5,309.5 819.5,303.5 819.5,297.5C 819.5,275.167 819.5,252.833 819.5,230.5C 821.415,230.216 823.081,230.549 824.5,231.5 Z"/></g>
<g><path style="opacity:1" fill="#a2aeb8" d="M 566.5,279.5 C 566.5,295.5 566.5,311.5 566.5,327.5C 564.5,327.5 562.5,327.5 560.5,327.5C 560.5,312.833 560.5,298.167 560.5,283.5C 560.5,265.833 560.5,248.167 560.5,230.5C 562.5,230.5 564.5,230.5 566.5,230.5C 566.5,246.833 566.5,263.167 566.5,279.5 Z"/></g>
<g><path style="opacity:1" fill="#fdfffd" d="M 561.5,231.5 C 562.833,231.5 564.167,231.5 565.5,231.5C 565.5,263.167 565.5,294.833 565.5,326.5C 564.167,326.5 562.833,326.5 561.5,326.5C 561.5,294.833 561.5,263.167 561.5,231.5 Z"/></g>
<g><path style="opacity:1" fill="#e7eaec" d="M 824.5,231.5 C 824.309,244.194 824.809,256.861 826,269.5C 827.045,268.627 827.878,267.627 828.5,266.5C 839.236,256.256 851.236,254.756 864.5,262C 870.313,266.795 872.98,272.961 872.5,280.5C 872.5,295.833 872.5,311.167 872.5,326.5C 870.5,326.5 868.5,326.5 866.5,326.5C 866.828,315.321 866.495,304.321 865.5,293.5C 865.991,285.325 865.157,277.325 863,269.5C 851.452,261.021 840.452,261.688 830,271.5C 827.079,278.513 825.913,285.846 826.5,293.5C 825.505,304.321 825.172,315.321 825.5,326.5C 823.833,326.5 822.167,326.5 820.5,326.5C 820.5,322.833 820.5,319.167 820.5,315.5C 820.5,287.5 820.5,259.5 820.5,231.5C 821.833,231.5 823.167,231.5 824.5,231.5 Z"/></g>
<g><path style="opacity:1" fill="#748394" d="M 648.5,242.5 C 657.652,241.506 666.985,241.173 676.5,241.5C 676.5,239.833 676.5,238.167 676.5,236.5C 655.167,236.5 633.833,236.5 612.5,236.5C 612.5,238.167 612.5,239.833 612.5,241.5C 622.015,241.173 631.348,241.506 640.5,242.5C 630.833,242.5 621.167,242.5 611.5,242.5C 611.5,240.167 611.5,237.833 611.5,235.5C 633.5,235.5 655.5,235.5 677.5,235.5C 677.5,237.833 677.5,240.167 677.5,242.5C 667.833,242.5 658.167,242.5 648.5,242.5 Z"/></g>
<g><path style="opacity:1" fill="#7c8b9b" d="M 401.5,242.5 C 415.323,241.504 429.323,241.171 443.5,241.5C 443.5,239.833 443.5,238.167 443.5,236.5C 427.5,236.5 411.5,236.5 395.5,236.5C 395.5,266.5 395.5,296.5 395.5,326.5C 397.167,326.5 398.833,326.5 400.5,326.5C 400.171,312.99 400.504,299.656 401.5,286.5C 401.5,300.167 401.5,313.833 401.5,327.5C 399.167,327.5 396.833,327.5 394.5,327.5C 394.5,296.833 394.5,266.167 394.5,235.5C 411.167,235.5 427.833,235.5 444.5,235.5C 444.5,237.833 444.5,240.167 444.5,242.5C 430.167,242.5 415.833,242.5 401.5,242.5 Z"/></g>
<g><path style="opacity:1" fill="#fafafb" d="M 401.5,242.5 C 400.505,255.323 400.171,268.323 400.5,281.5C 414.167,281.5 427.833,281.5 441.5,281.5C 441.5,282.833 441.5,284.167 441.5,285.5C 427.99,285.171 414.656,285.504 401.5,286.5C 400.504,299.656 400.171,312.99 400.5,326.5C 398.833,326.5 397.167,326.5 395.5,326.5C 395.5,296.5 395.5,266.5 395.5,236.5C 411.5,236.5 427.5,236.5 443.5,236.5C 443.5,238.167 443.5,239.833 443.5,241.5C 429.323,241.171 415.323,241.504 401.5,242.5 Z"/></g>
<g><path style="opacity:1" fill="#eeeff1" d="M 648.5,242.5 C 647.502,270.328 647.169,298.328 647.5,326.5C 645.5,326.5 643.5,326.5 641.5,326.5C 641.831,298.328 641.498,270.328 640.5,242.5C 631.348,241.506 622.015,241.173 612.5,241.5C 612.5,239.833 612.5,238.167 612.5,236.5C 633.833,236.5 655.167,236.5 676.5,236.5C 676.5,238.167 676.5,239.833 676.5,241.5C 666.985,241.173 657.652,241.506 648.5,242.5 Z"/></g>
<g><path style="opacity:1" fill="#778596" d="M 640.5,242.5 C 641.498,270.328 641.831,298.328 641.5,326.5C 643.5,326.5 645.5,326.5 647.5,326.5C 647.169,298.328 647.502,270.328 648.5,242.5C 648.5,270.833 648.5,299.167 648.5,327.5C 645.833,327.5 643.167,327.5 640.5,327.5C 640.5,299.167 640.5,270.833 640.5,242.5 Z"/></g>
<g><path style="opacity:1" fill="#eceef0" d="M 739.5,280.5 C 739.5,284.833 739.5,289.167 739.5,293.5C 723.658,293.17 707.991,293.504 692.5,294.5C 690.651,311.407 698.317,320.74 715.5,322.5C 722.925,321.989 730.258,320.989 737.5,319.5C 737.714,321.144 737.38,322.644 736.5,324C 699.029,334.536 682.196,320.37 686,281.5C 691.237,264.895 702.404,257.062 719.5,258C 731.131,261.099 737.798,268.599 739.5,280.5 Z"/></g>
<g><path style="opacity:1" fill="#e2e6ea" d="M 778.5,257.5 C 786.647,257.328 794.481,258.662 802,261.5C 803.08,264.237 802.246,265.904 799.5,266.5C 779.099,258.99 766.599,265.657 762,286.5C 759.387,316.708 772.887,328.041 802.5,320.5C 802.5,322.167 802.5,323.833 802.5,325.5C 772.694,333.782 756.694,322.615 754.5,292C 755.013,275.099 763.013,263.599 778.5,257.5 Z"/></g>
<g><path style="opacity:1" fill="#5e6f84" d="M 828.5,266.5 C 827.878,267.627 827.045,268.627 826,269.5C 824.809,256.861 824.309,244.194 824.5,231.5C 823.081,230.549 821.415,230.216 819.5,230.5C 819.5,252.833 819.5,275.167 819.5,297.5C 818.503,275.006 818.169,252.339 818.5,229.5C 820.833,229.5 823.167,229.5 825.5,229.5C 825.857,241.503 826.357,253.503 827,265.5C 827.383,266.056 827.883,266.389 828.5,266.5 Z"/></g>
<g><path style="opacity:1" fill="#6e7e90" d="M 461.5,260.5 C 459.833,260.5 458.167,260.5 456.5,260.5C 456.5,272.5 456.5,284.5 456.5,296.5C 455.505,284.345 455.171,272.011 455.5,259.5C 457.735,259.205 459.735,259.539 461.5,260.5 Z"/></g>
<g><path style="opacity:1" fill="#f3f3f5" d="M 461.5,260.5 C 461.286,277.189 461.786,293.855 463,310.5C 463.996,316.159 467.162,319.993 472.5,322C 482.75,324.281 491.583,321.781 499,314.5C 500.197,311.911 501.197,309.244 502,306.5C 502.5,299.174 502.666,291.841 502.5,284.5C 503.492,276.684 503.826,268.684 503.5,260.5C 505.167,260.5 506.833,260.5 508.5,260.5C 508.5,282.5 508.5,304.5 508.5,326.5C 506.833,326.5 505.167,326.5 503.5,326.5C 503.875,323.603 503.375,320.937 502,318.5C 491.85,328.661 480.016,331.161 466.5,326C 462.612,323.778 459.779,320.612 458,316.5C 456.623,309.924 456.123,303.257 456.5,296.5C 456.5,284.5 456.5,272.5 456.5,260.5C 458.167,260.5 459.833,260.5 461.5,260.5 Z"/></g>
<g><path style="opacity:1" fill="#647588" d="M 503.5,326.5 C 505.167,326.5 506.833,326.5 508.5,326.5C 508.5,304.5 508.5,282.5 508.5,260.5C 506.833,260.5 505.167,260.5 503.5,260.5C 503.826,268.684 503.492,276.684 502.5,284.5C 502.5,276.167 502.5,267.833 502.5,259.5C 504.833,259.5 507.167,259.5 509.5,259.5C 509.5,282.167 509.5,304.833 509.5,327.5C 507.265,327.795 505.265,327.461 503.5,326.5 Z"/></g>
<g><path style="opacity:1" fill="#031f3f" d="M 732.5,279.5 C 732.5,282.167 732.5,284.833 732.5,287.5C 718.791,288.148 705.458,287.481 692.5,285.5C 696.123,266.352 707.123,260.186 725.5,267C 729.271,270.376 731.604,274.542 732.5,279.5 Z"/></g>
<g><path style="opacity:1" fill="#55687e" d="M 566.5,279.5 C 566.5,263.167 566.5,246.833 566.5,230.5C 564.5,230.5 562.5,230.5 560.5,230.5C 560.5,248.167 560.5,265.833 560.5,283.5C 559.503,265.674 559.17,247.674 559.5,229.5C 562.167,229.5 564.833,229.5 567.5,229.5C 567.83,246.342 567.497,263.008 566.5,279.5 Z"/></g>
<g><path style="opacity:1" fill="#162c64" d="M 36.5,267.5 C 80.3302,268.499 124.33,268.832 168.5,268.5C 124.325,271.162 79.9918,271.162 35.5,268.5C 35.6236,267.893 35.9569,267.56 36.5,267.5 Z"/></g>
<g><path style="opacity:1" fill="#7a899a" d="M 401.5,242.5 C 401.5,255.167 401.5,267.833 401.5,280.5C 415.167,280.5 428.833,280.5 442.5,280.5C 442.5,282.5 442.5,284.5 442.5,286.5C 428.833,286.5 415.167,286.5 401.5,286.5C 414.656,285.504 427.99,285.171 441.5,285.5C 441.5,284.167 441.5,282.833 441.5,281.5C 427.833,281.5 414.167,281.5 400.5,281.5C 400.171,268.323 400.505,255.323 401.5,242.5 Z"/></g>
<g><path style="opacity:1" fill="#7e8c9c" d="M 732.5,279.5 C 734.068,282.516 734.401,285.683 733.5,289C 719.493,289.5 705.493,289.333 691.5,288.5C 691.263,287.209 691.596,286.209 692.5,285.5C 705.458,287.481 718.791,288.148 732.5,287.5C 732.5,284.833 732.5,282.167 732.5,279.5 Z"/></g>
<g><path style="opacity:1" fill="#7d8c9c" d="M 739.5,280.5 C 740.486,284.97 740.819,289.637 740.5,294.5C 724.5,294.5 708.5,294.5 692.5,294.5C 707.991,293.504 723.658,293.17 739.5,293.5C 739.5,289.167 739.5,284.833 739.5,280.5 Z"/></g>
<g><path style="opacity:1" fill="#6e7e90" d="M 826.5,293.5 C 826.5,304.833 826.5,316.167 826.5,327.5C 824.167,327.5 821.833,327.5 819.5,327.5C 819.5,323.5 819.5,319.5 819.5,315.5C 819.833,315.5 820.167,315.5 820.5,315.5C 820.5,319.167 820.5,322.833 820.5,326.5C 822.167,326.5 823.833,326.5 825.5,326.5C 825.172,315.321 825.505,304.321 826.5,293.5 Z"/></g>
<g><path style="opacity:1" fill="#68798c" d="M 872.5,280.5 C 873.496,295.991 873.83,311.658 873.5,327.5C 870.833,327.5 868.167,327.5 865.5,327.5C 865.5,316.167 865.5,304.833 865.5,293.5C 866.495,304.321 866.828,315.321 866.5,326.5C 868.5,326.5 870.5,326.5 872.5,326.5C 872.5,311.167 872.5,295.833 872.5,280.5 Z"/></g>
<g><path style="opacity:1" fill="#7e8d9c" d="M 34.5,323.5 C 79.5,323.5 124.5,323.5 169.5,323.5C 169.5,368.5 169.5,413.5 169.5,458.5C 124.5,458.5 79.5,458.5 34.5,458.5C 34.5,413.5 34.5,368.5 34.5,323.5 Z"/></g>
<g><path style="opacity:1" fill="#fdfffd" d="M 35.5,324.5 C 79.8333,324.5 124.167,324.5 168.5,324.5C 168.5,368.833 168.5,413.167 168.5,457.5C 124.167,457.5 79.8333,457.5 35.5,457.5C 35.5,413.167 35.5,368.833 35.5,324.5 Z"/></g>
<g><path style="opacity:1" fill="#6363ea" d="M 227.5,324.5 C 241.793,337.79 256.126,351.123 270.5,364.5C 284.194,350.972 298.027,337.639 312,324.5C 320.291,331.79 328.291,339.456 336,347.5C 336.667,348.5 336.667,349.5 336,350.5C 322.471,363.695 309.304,377.195 296.5,391C 309.651,404.985 322.985,418.818 336.5,432.5C 329.015,440.486 321.348,448.319 313.5,456C 312.5,456.667 311.5,456.667 310.5,456C 297.319,442.653 283.986,429.486 270.5,416.5C 256.803,430.198 242.803,443.532 228.5,456.5C 220.214,449.717 212.381,442.383 205,434.5C 204.333,433.167 204.333,431.833 205,430.5C 218.379,417.622 231.213,404.289 243.5,390.5C 230.67,376.504 217.67,362.671 204.5,349C 211.992,340.674 219.659,332.507 227.5,324.5 Z"/></g>
<g><path style="opacity:1" fill="#e4e6ea" d="M 389.5,445.5 C 389.025,442.918 389.692,440.918 391.5,439.5C 401.718,441.502 412.051,442.002 422.5,441C 436.445,436.845 440.612,428.012 435,414.5C 433.833,413.333 432.667,412.167 431.5,411C 421.733,406.116 411.733,401.783 401.5,398C 390.129,390.417 386.962,380.25 392,367.5C 400.697,356.735 411.864,352.569 425.5,355C 430.167,356 434.833,357 439.5,358C 441.787,359.427 442.12,361.261 440.5,363.5C 439.667,363.833 438.833,364.167 438,364.5C 427.624,361.262 417.124,360.762 406.5,363C 396.407,368.717 393.907,376.884 399,387.5C 399.833,388.333 400.667,389.167 401.5,390C 412.332,395.388 423.332,400.388 434.5,405C 443.651,411.155 446.818,419.655 444,430.5C 441.565,437.934 436.732,443.101 429.5,446C 416.124,449.331 402.791,449.164 389.5,445.5 Z"/></g>
<g><path style="opacity:1" fill="#e6e9ed" d="M 462.5,355.5 C 464.467,355.261 466.301,355.594 468,356.5C 468.784,359.76 468.617,362.927 467.5,366C 465.299,366.825 463.466,366.325 462,364.5C 461.264,361.408 461.431,358.408 462.5,355.5 Z"/></g>
<g><path style="opacity:1" fill="#eaedef" d="M 700.5,407.5 C 692.016,406.507 683.349,406.174 674.5,406.5C 674.5,405.167 674.5,403.833 674.5,402.5C 685.167,402.5 695.833,402.5 706.5,402.5C 706.5,409.5 706.5,416.5 706.5,423.5C 706.5,430.167 706.5,436.833 706.5,443.5C 689.983,448.105 673.316,448.605 656.5,445C 636.571,432.579 629.071,414.745 634,391.5C 642.291,361.752 661.791,349.919 692.5,356C 695.833,357 699.167,358 702.5,359C 705.789,360.077 706.289,361.91 704,364.5C 703.275,365.059 702.442,365.392 701.5,365.5C 690.133,361.79 678.466,360.623 666.5,362C 649.705,368.571 640.705,380.905 639.5,399C 640.3,431.138 656.634,445.471 688.5,442C 692.211,441.156 695.877,440.156 699.5,439C 701.196,428.425 701.529,417.925 700.5,407.5 Z"/></g>
<g><path style="opacity:1" fill="#e6e8eb" d="M 581.5,400.5 C 581.5,415.833 581.5,431.167 581.5,446.5C 579.5,446.5 577.5,446.5 575.5,446.5C 575.829,432.99 575.496,419.656 574.5,406.5C 575.84,386.027 566.84,379.527 547.5,387C 544.567,389.264 542.4,392.098 541,395.5C 540.501,401.157 540.334,406.824 540.5,412.5C 539.505,423.654 539.172,434.988 539.5,446.5C 537.5,446.5 535.5,446.5 533.5,446.5C 533.829,432.99 533.496,419.656 532.5,406.5C 533.84,386.027 524.84,379.527 505.5,387C 502.567,389.264 500.4,392.098 499,395.5C 497.893,401.787 497.393,408.12 497.5,414.5C 496.506,424.987 496.172,435.654 496.5,446.5C 494.833,446.5 493.167,446.5 491.5,446.5C 491.5,424.167 491.5,401.833 491.5,379.5C 492.5,379.5 493.5,379.5 494.5,379.5C 495.497,379.47 496.164,379.97 496.5,381C 497.161,383.464 497.661,385.964 498,388.5C 506.709,376.395 517.543,374.228 530.5,382C 533.702,383.702 536.035,386.202 537.5,389.5C 549.366,375.237 562.533,373.904 577,385.5C 580.413,389.908 581.913,394.908 581.5,400.5 Z"/></g>
<g><path style="opacity:1" fill="#eaecef" d="M 778.5,399.5 C 778.5,404.167 778.5,408.833 778.5,413.5C 762.658,413.17 746.991,413.504 731.5,414.5C 730.591,431.584 738.591,440.918 755.5,442.5C 762.661,441.934 769.661,440.601 776.5,438.5C 776.739,440.467 776.406,442.301 775.5,444C 738.493,454.658 721.66,440.824 725,402.5C 728.351,390.951 735.518,382.785 746.5,378C 763.541,375.898 774.208,383.065 778.5,399.5 Z"/></g>
<g><path style="opacity:1" fill="#e2e5e9" d="M 843.5,399.5 C 843.5,415.167 843.5,430.833 843.5,446.5C 842.167,446.5 840.833,446.5 839.5,446.5C 839.737,445.209 839.404,444.209 838.5,443.5C 838.628,441.345 838.128,439.345 837,437.5C 827.754,447.359 816.587,450.526 803.5,447C 792.005,439.762 789.505,430.262 796,418.5C 801.587,411.79 808.754,408.457 817.5,408.5C 824.5,408.5 831.5,408.5 838.5,408.5C 838.844,403.878 838.177,399.545 836.5,395.5C 835.98,391.464 833.98,388.297 830.5,386C 820.946,383.391 811.779,384.224 803,388.5C 800.498,387.499 799.998,385.833 801.5,383.5C 812.568,377.434 823.902,376.934 835.5,382C 841.54,386.286 844.207,392.12 843.5,399.5 Z"/></g>
<g><path style="opacity:1" fill="#eef0f2" d="M 872.5,417.5 C 871.506,426.986 871.173,436.652 871.5,446.5C 869.833,446.5 868.167,446.5 866.5,446.5C 866.5,424.5 866.5,402.5 866.5,380.5C 867.833,380.5 869.167,380.5 870.5,380.5C 870.198,383.059 870.532,385.393 871.5,387.5C 871.351,388.552 871.517,389.552 872,390.5C 878.547,379.477 888.047,375.477 900.5,378.5C 900.5,380.5 900.5,382.5 900.5,384.5C 888.27,381.074 879.436,385.074 874,396.5C 872.837,403.453 872.337,410.453 872.5,417.5 Z"/></g>
<g><path style="opacity:1" fill="#728293" d="M 494.5,379.5 C 493.5,379.5 492.5,379.5 491.5,379.5C 491.5,401.833 491.5,424.167 491.5,446.5C 493.167,446.5 494.833,446.5 496.5,446.5C 496.172,435.654 496.506,424.987 497.5,414.5C 497.5,425.5 497.5,436.5 497.5,447.5C 495.167,447.5 492.833,447.5 490.5,447.5C 490.5,424.5 490.5,401.5 490.5,378.5C 492.099,378.232 493.432,378.566 494.5,379.5 Z"/></g>
<g><path style="opacity:1" fill="#9ba7b2" d="M 468.5,424.5 C 468.5,432.167 468.5,439.833 468.5,447.5C 466.5,447.5 464.5,447.5 462.5,447.5C 462.5,442.5 462.5,437.5 462.5,432.5C 462.5,414.833 462.5,397.167 462.5,379.5C 464.5,379.5 466.5,379.5 468.5,379.5C 468.5,394.5 468.5,409.5 468.5,424.5 Z"/></g>
<g><path style="opacity:1" fill="#fdfffd" d="M 463.5,380.5 C 464.833,380.5 466.167,380.5 467.5,380.5C 467.5,402.5 467.5,424.5 467.5,446.5C 466.167,446.5 464.833,446.5 463.5,446.5C 463.5,424.5 463.5,402.5 463.5,380.5 Z"/></g>
<g><path style="opacity:1" fill="#748395" d="M 868.5,379.5 C 869.5,379.5 870.5,379.5 871.5,379.5C 871.5,382.167 871.5,384.833 871.5,387.5C 870.532,385.393 870.198,383.059 870.5,380.5C 869.167,380.5 867.833,380.5 866.5,380.5C 866.5,402.5 866.5,424.5 866.5,446.5C 868.167,446.5 869.833,446.5 871.5,446.5C 871.173,436.652 871.506,426.986 872.5,417.5C 872.5,427.5 872.5,437.5 872.5,447.5C 870.167,447.5 867.833,447.5 865.5,447.5C 865.5,441.833 865.5,436.167 865.5,430.5C 865.5,413.5 865.5,396.5 865.5,379.5C 866.5,379.5 867.5,379.5 868.5,379.5 Z"/></g>
<g><path style="opacity:1" fill="#041f3f" d="M 772.5,401.5 C 772.5,403.5 772.5,405.5 772.5,407.5C 759.167,407.5 745.833,407.5 732.5,407.5C 732.5,406.167 732.5,404.833 732.5,403.5C 736.589,385.622 747.255,380.122 764.5,387C 769.107,390.771 771.773,395.604 772.5,401.5 Z"/></g>
<g><path style="opacity:1" fill="#394f68" d="M 868.5,379.5 C 867.5,379.5 866.5,379.5 865.5,379.5C 865.5,396.5 865.5,413.5 865.5,430.5C 864.503,413.341 864.17,396.008 864.5,378.5C 866.099,378.232 867.432,378.566 868.5,379.5 Z"/></g>
<g><path style="opacity:1" fill="#43576f" d="M 468.5,424.5 C 468.5,409.5 468.5,394.5 468.5,379.5C 466.5,379.5 464.5,379.5 462.5,379.5C 462.5,397.167 462.5,414.833 462.5,432.5C 461.503,414.674 461.17,396.674 461.5,378.5C 464.167,378.5 466.833,378.5 469.5,378.5C 469.83,394.009 469.496,409.342 468.5,424.5 Z"/></g>
<g><path style="opacity:1" fill="#8794a3" d="M 706.5,423.5 C 706.5,416.5 706.5,409.5 706.5,402.5C 695.833,402.5 685.167,402.5 674.5,402.5C 674.5,403.833 674.5,405.167 674.5,406.5C 683.349,406.174 692.016,406.507 700.5,407.5C 691.5,407.5 682.5,407.5 673.5,407.5C 673.007,405.194 672.674,402.861 672.5,400.5C 684.168,400.796 695.835,401.13 707.5,401.5C 707.825,409.019 707.492,416.352 706.5,423.5 Z"/></g>
<g><path style="opacity:1" fill="#6e7e91" d="M 772.5,401.5 C 773.468,403.607 773.802,405.941 773.5,408.5C 768.833,408.5 764.167,408.5 759.5,408.5C 750.167,408.5 740.833,408.5 731.5,408.5C 731.5,407.5 731.5,406.5 731.5,405.5C 731.328,404.508 731.662,403.842 732.5,403.5C 732.5,404.833 732.5,406.167 732.5,407.5C 745.833,407.5 759.167,407.5 772.5,407.5C 772.5,405.5 772.5,403.5 772.5,401.5 Z"/></g>
<g><path style="opacity:1" fill="#57697f" d="M 836.5,395.5 C 838.177,399.545 838.844,403.878 838.5,408.5C 831.5,408.5 824.5,408.5 817.5,408.5C 823.658,407.535 829.992,406.868 836.5,406.5C 836.5,402.833 836.5,399.167 836.5,395.5 Z"/></g>
<g><path style="opacity:1" fill="#a8b2bd" d="M 731.5,405.5 C 731.5,406.5 731.5,407.5 731.5,408.5C 740.833,408.5 750.167,408.5 759.5,408.5C 750.014,409.494 740.348,409.827 730.5,409.5C 730.232,407.901 730.566,406.568 731.5,405.5 Z"/></g>
<g><path style="opacity:1" fill="#7c8b9b" d="M 778.5,399.5 C 779.487,404.305 779.821,409.305 779.5,414.5C 763.5,414.5 747.5,414.5 731.5,414.5C 746.991,413.504 762.658,413.17 778.5,413.5C 778.5,408.833 778.5,404.167 778.5,399.5 Z"/></g>
<g><path style="opacity:1" fill="#04213f" d="M 814.5,413.5 C 822.167,413.5 829.833,413.5 837.5,413.5C 838.258,436.905 827.258,445.739 804.5,440C 801.292,436.88 799.959,433.046 800.5,428.5C 800.453,425.705 800.953,423.039 802,420.5C 805.728,417.223 809.895,414.89 814.5,413.5 Z"/></g>
<g><path style="opacity:1" fill="#798999" d="M 532.5,406.5 C 533.496,419.656 533.829,432.99 533.5,446.5C 535.5,446.5 537.5,446.5 539.5,446.5C 539.172,434.988 539.505,423.654 540.5,412.5C 540.5,424.167 540.5,435.833 540.5,447.5C 537.833,447.5 535.167,447.5 532.5,447.5C 532.5,433.833 532.5,420.167 532.5,406.5 Z"/></g>
<g><path style="opacity:1" fill="#6e7e90" d="M 581.5,400.5 C 582.496,415.991 582.83,431.658 582.5,447.5C 579.833,447.5 577.167,447.5 574.5,447.5C 574.5,433.833 574.5,420.167 574.5,406.5C 575.496,419.656 575.829,432.99 575.5,446.5C 577.5,446.5 579.5,446.5 581.5,446.5C 581.5,431.167 581.5,415.833 581.5,400.5 Z"/></g>
<g><path style="opacity:1" fill="#6b7b8e" d="M 843.5,399.5 C 844.496,415.325 844.83,431.325 844.5,447.5C 842.5,447.5 840.5,447.5 838.5,447.5C 838.5,446.167 838.5,444.833 838.5,443.5C 839.404,444.209 839.737,445.209 839.5,446.5C 840.833,446.5 842.167,446.5 843.5,446.5C 843.5,430.833 843.5,415.167 843.5,399.5 Z"/></g>
<g><path style="opacity:1" fill="#5e6f84" d="M 391.5,439.5 C 389.692,440.918 389.025,442.918 389.5,445.5C 388.532,443.393 388.198,441.059 388.5,438.5C 389.791,438.263 390.791,438.596 391.5,439.5 Z"/></g>
</svg>
