<?xml version="1.0" encoding="UTF-8"?>
<!DOCTYPE svg PUBLIC "-//W3C//DTD SVG 1.1//EN" "http://www.w3.org/Graphics/SVG/1.1/DTD/svg11.dtd">
<svg xmlns="http://www.w3.org/2000/svg" version="1.1" width="371px" height="353px" style="shape-rendering:geometricPrecision; text-rendering:geometricPrecision; image-rendering:optimizeQuality; fill-rule:evenodd; clip-rule:evenodd" xmlns:xlink="http://www.w3.org/1999/xlink">
<g><path style="opacity:1" fill="#001c3c" d="M -0.5,-0.5 C 123.167,-0.5 246.833,-0.5 370.5,-0.5C 370.5,117.167 370.5,234.833 370.5,352.5C 246.833,352.5 123.167,352.5 -0.5,352.5C -0.5,234.833 -0.5,117.167 -0.5,-0.5 Z"/></g>
<g><path style="opacity:1" fill="#fcfdfe" d="M 258.5,16.5 C 298.574,14.4487 324.407,32.4487 336,70.5C 339.917,98.4353 331.084,121.269 309.5,139C 272.514,160.401 240.68,154.568 214,121.5C 194.46,85.0583 200.627,53.8917 232.5,28C 240.649,22.7539 249.315,18.9205 258.5,16.5 Z"/></g>
<g><path style="opacity:1" fill="#6363ec" d="M 168.5,132.5 C 124.491,132.754 80.4913,132.421 36.5,131.5C 57.3115,93.2061 79.1449,55.5395 102,18.5C 124.935,56.0354 147.102,94.0354 168.5,132.5 Z"/></g>
<g><path style="opacity:1" fill="#203477" d="M 36.5,131.5 C 80.4913,132.421 124.491,132.754 168.5,132.5C 124.331,133.831 79.9982,133.831 35.5,132.5C 35.6236,131.893 35.9569,131.56 36.5,131.5 Z"/></g>
<g><path style="opacity:1" fill="#7e8d9c" d="M 34.5,187.5 C 79.5,187.5 124.5,187.5 169.5,187.5C 169.5,232.5 169.5,277.5 169.5,322.5C 124.5,322.5 79.5,322.5 34.5,322.5C 34.5,277.5 34.5,232.5 34.5,187.5 Z"/></g>
<g><path style="opacity:1" fill="#fefffe" d="M 35.5,188.5 C 79.8333,188.5 124.167,188.5 168.5,188.5C 168.5,232.833 168.5,277.167 168.5,321.5C 124.167,321.5 79.8333,321.5 35.5,321.5C 35.5,277.167 35.5,232.833 35.5,188.5 Z"/></g>
<g><path style="opacity:1" fill="#6363ea" d="M 227.5,188.5 C 241.793,201.79 256.126,215.123 270.5,228.5C 284.194,214.972 298.027,201.639 312,188.5C 320.291,195.79 328.291,203.456 336,211.5C 336.667,212.5 336.667,213.5 336,214.5C 322.471,227.695 309.304,241.195 296.5,255C 309.651,268.985 322.985,282.818 336.5,296.5C 329.015,304.486 321.348,312.319 313.5,320C 312.5,320.667 311.5,320.667 310.5,320C 297.319,306.653 283.986,293.486 270.5,280.5C 256.803,294.198 242.803,307.532 228.5,320.5C 220.214,313.717 212.381,306.383 205,298.5C 204.333,297.167 204.333,295.833 205,294.5C 218.379,281.622 231.213,268.289 243.5,254.5C 230.67,240.504 217.67,226.671 204.5,213C 211.992,204.674 219.659,196.507 227.5,188.5 Z"/></g>
</svg>
