<!DOCTYPE svg PUBLIC "-//W3C//DTD SVG 1.1//EN" "http://www.w3.org/Graphics/SVG/1.1/DTD/svg11.dtd">
<svg xmlns="http://www.w3.org/2000/svg" style="shape-rendering:geometricPrecision;text-rendering:geometricPrecision;image-rendering:optimizeQuality;fill-rule:evenodd;clip-rule:evenodd" viewBox="0 0 657 595">
  <path fill="#fefdfd" d="M0 0h331a512 512 0 0 0-39 7 245 245 0 0 0-108 49l-19 14-28 28c-5 5-9 11-12 18a262 262 0 0 0-53 133l34-2a197 197 0 0 1 64-121 235 235 0 0 1 83-48 204 204 0 0 1 85-8c26 2 50 10 74 22a108955 108955 0 0 0 39-75c-27-9-55-15-83-17h289v595H0V0Z" style="opacity:1"/>
  <path fill="#939498" d="M331 0h37c28 2 56 8 83 17v4l-39 71a221 221 0 0 0-114-24 1977 1977 0 0 1 29-32l-26-25c0-2 0-3 2-3l-3-3 31-5Z" style="opacity:1"/>
  <path fill="#939498" d="M292 7h4l29 30-31 33c-14 1-28 3-41 8h-9c-13-12-26-25-37-38 26-17 54-28 85-33Z" style="opacity:1"/>
  <path fill="#b13a41" d="M481 32c-6-3-11-5-17-5v-3h4l13 8Z" style="opacity:1"/>
  <path fill="#be1f2e" d="M464 27c6 0 11 2 17 5l18 9 2 5c2-1 3 0 4 3h-3c0 2 0 2-2 1l1 5h-3l-4 9c-3 0-5 1-4 5l-1 2-3-1-28-27v-5l6-11Z" style="opacity:1"/>
  <path fill="#c64c57" d="m464 27-6 11v5l28 27 3 1v1c-2 0-3 0-3 2l-30-31-4 8-2 1a365 365 0 0 1 14-25Z" style="opacity:1"/>
  <path fill="#929397" d="m204 42 40 39c-28 10-53 25-74 45l-4-1-25-25 43-44c6-6 12-10 20-14Z" style="opacity:1"/>
  <path fill="#bd202f" d="m486 74-10 13a641 641 0 0 0-27 27l-4-2-10-7c-3-4-5-6-8-7 3-9 7-17 13-25 2-1 3-2 2-4l3-8c1-4 2-7 5-9l2-1 4-8 30 31Z" style="opacity:1"/>
  <path fill="#b6343f" d="m499 41 10 7-16 19-3 2c-1-4 1-5 4-5l4-9h3l-1-5c2 1 2 1 2-1h3c-1-3-2-4-4-3l-2-5Z" style="opacity:1"/>
  <path fill="#a6a7ab" d="M338 70c-15-2-30-2-44 0l31-33-29-30h-4c2-2 5-2 8-2l3 3c-2 0-2 1-2 3l26 25a520 520 0 0 0 36-33c-23 21-44 43-65 65a633 633 0 0 1 40 2Z" style="opacity:1"/>
  <path fill="#c26a6e" d="m517 59-4 5c0-3 1-4 4-5Z" style="opacity:1"/>
  <path fill="#bd202f" d="m524 59 2 5 9 4c0 3 2 4 5 6-3 3-6 4-9 4l-1 5-10 10-8 3-13-13 4-5 1-4c2-4 5-8 9-10l4-5c2-4 4-4 7 0Z" style="opacity:1"/>
  <path fill="#aeaeb2" d="M207 40c11 13 24 26 37 38h9l-9 3-40-39c0-1 1-2 3-2Z" style="opacity:1"/>
  <path fill="#f2bbbd" d="m493 67-4 5v-1l1-2 3-2Z" style="opacity:1"/>
  <path fill="#f7d6d7" d="m489 72-5 8-8 7a5859 5859 0 0 1 13-15Z" style="opacity:1"/>
  <path fill="#be1e2e" d="m552 83 4 4 3 7c4 2 8 6 10 11l-3 3-11-6-1 1 4 7 2-2h5l-1 3-6 3v3l-8 5c-3 1-6 2-9 1-8-6-15-12-21-19l-2-4 22-22c4-1 7 0 9 4l3 1Z" style="opacity:1"/>
  <path fill="#b8434c" d="m445 61-3 8c1 2 0 3-2 4-6 8-10 16-13 25 3 1 5 3 8 7l-7-4-3-4c6-13 12-25 20-36Z" style="opacity:1"/>
  <path fill="#bd2130" d="m496 84 16 15-4 8h-3l-13 14-3 1-2 7c-4 1-8 4-10 7l-4 1-9-9c-2-2-3-3-2-5 3-5 6-9 11-13 4-3 7-6 9-10l6-7c1-4 4-7 8-9Z" style="opacity:1"/>
  <path fill="#b72f3b" d="M524 59c10 6 19 14 28 24l-3-1c-2-4-5-5-9-4l-22 22 2 4c-3-2-4-3-3-6-3 0-4-1-5-2l8-3 10-10 1-5c3 0 6-1 9-4-3-2-5-3-5-6l-9-4-2-5Z" style="opacity:1"/>
  <path fill="#bf5c65" d="m488 93-6 7c1-3 3-6 6-7Z" style="opacity:1"/>
  <path fill="#a6a7a9" d="m184 56-43 44 25 25 4 1c-2 1-3 2-3 4l-27-28c-6 4-11 8-15 14 3-7 7-13 12-18l28-28 19-14Z" style="opacity:1"/>
  <path fill="#cb4955" d="m504 74-1 4-4 5 13 13c1 1 2 2 5 2-1 3 0 4 3 6 6 7 13 13 21 19 3 1 6 0 9-1l-9 6a897 897 0 0 0-28-26l-5 5 4-8-16-15c2-4 4-7 8-10Z" style="opacity:1"/>
  <path fill="#b82f39" d="m556 87 17 19-15 11v-3l6-3 1-3h-5l-2 2-4-7 1-1 11 6 3-3c-2-5-6-9-10-11l-3-7Z" style="opacity:1"/>
  <path fill="#939498" d="M167 130c-34 31-55 70-61 117l-33 1v-7c6-47 23-89 52-125 4-6 9-10 15-14l27 28Z" style="opacity:1"/>
  <path fill="#b74a52" d="M482 100c-2 4-5 7-9 10 2-4 5-8 9-10Z" style="opacity:1"/>
  <path fill="#bd202f" d="m535 132-44 28-11-15-2-6c9-7 16-16 23-25l14-10 24 23-5 1 1 4Z" style="opacity:1"/>
  <path fill="#b64f58" d="m445 112 4 2 4-2c-3 5-6 5-8 0Z" style="opacity:1"/>
  <path fill="#c26776" d="M462 123c-1 2 0 3 2 5-4-1-5-3-2-5Z" style="opacity:1"/>
  <path fill="#bd202f" d="m594 144-17 17-24-25c4-4 9-7 15-9l6-2 1 1c1-4 3-6 7-6l2 8 4 3c-2 0-2 1-2 3 5 1 7 5 8 10Z" style="opacity:1"/>
  <path fill="#b52e38" d="m541 128-6 4-1-4 5-1-24-23-14 10c-7 9-14 18-23 25l2 6c-4-3-6-5-7-8l4-1c2-3 6-6 10-7l2-7 3-1 13-14h3l5-5h3l25 26Z" style="opacity:1"/>
  <path fill="#b8313c" d="m596 140-2 4c-1-5-3-9-8-10 0-2 0-3 2-3l-4-3-2-8c-4 0-6 2-7 6l-1-1-6 2c3-4 8-7 13-9 6 6 11 13 15 22Z" style="opacity:1"/>
  <path fill="#be1f2e" d="m551 138 25 24a4080 4080 0 0 1-56 53l-4-10c-1-4-2-7-1-10h-3a485 485 0 0 0-10-22c2-4 4-6 8-7l2-3c3-3 7-6 11-7l6-2 1 1c3-5 7-9 13-10l1-3c2-2 4-4 7-4Z" style="opacity:1"/>
  <path fill="#bc1f2f" d="m598 144 6 10c1 7 4 14 9 20l1 2c-1 4 1 8 4 12l4 18-44-44c6-7 12-13 20-18Z" style="opacity:1"/>
  <path fill="#b93d46" d="m544 142-1 3c-6 1-10 5-13 10l-1-1-6 2c6-5 13-10 21-14Z" style="opacity:1"/>
  <path fill="#b64750" d="m604 154 9 20c-5-6-8-13-9-20Z" style="opacity:1"/>
  <path fill="#d44f5a" d="m553 136 24 25a304 304 0 0 0 19-21l2 4c-8 5-14 11-20 18a2698 2698 0 0 0-1 2 1985 1985 0 0 0-1-2l-25-24 2-2Z" style="opacity:1"/>
  <path fill="#be1e2e" d="M624 212c-1 1 0 2 1 4l-99 1c1-4 4-6 8-6v-3c14-15 28-29 43-42l47 46Z" style="opacity:1"/>
  <path fill="#b4353f" d="m512 163-2 3c-4 1-6 3-8 6l8 20-11-20c0-2 1-3 3-4l10-5Z" style="opacity:1"/>
  <path fill="#b84c53" d="m614 176 4 12c-3-4-5-8-4-12Z" style="opacity:1"/>
  <path fill="#b1b1b1" d="M341 193Z" style="opacity:1"/>
  <path fill="#a61c28" d="M624 210v2l-47-46a2535 2535 0 0 0-51 51h-2c17-18 34-36 53-53l47 46Z" style="opacity:1"/>
  <path fill="#fafafa" d="M290 242c-3 1-4 3-5 6l-17 16c-12 2-23 2-33-2a755 755 0 0 0 32-36c7-8 15-16 24-23 5-2 11-1 17 2 3 2 4 6 3 10l-21 27Z" style="opacity:1"/>
  <path fill="#434343" d="M341 193c43 1 85 10 126 26l34 20-19 18a264 264 0 0 0-133-46c-6 0-13 1-18 3-6 3-11 8-15 13l-19 24 7-1c6-1 12-2 19-1 4-2 7 0 8 5-2 6-5 10-11 13l-1 1 14 1 11 1-16 15-4-1a3713 3713 0 0 0-36-37l2-5 21-27c1-4 0-8-3-10-6-3-12-4-17-2-9 7-17 15-24 23-3-2-5-4-5-7 8-10 18-18 29-25 16-1 33-2 50-1Z" style="opacity:1"/>
  <path fill="#fcfcfc" d="m389 217 8 2a264 264 0 0 1 87 40c5 8 2 12-8 13h-40a2288 2288 0 0 0-93-3l-23-2c6-3 9-7 11-13-1-5-4-7-8-5-6-2-12-2-17-1l-2 2-7 1 19-24c4-5 9-10 15-13 5-2 12-3 18-3l40 6Z" style="opacity:1"/>
  <path fill="#b23b46" d="M618 188c4 9 7 19 9 30H519c-2-9-5-16-9-23v-3c1 0 2 1 2 3h3c-1 3 0 6 1 10l4 10 2 1 2 1h2l99-1c-1-2-2-3-1-4v-2l-2-4-4-18Z" style="opacity:1"/>
  <path fill="#9a9a9a" d="M389 217c2 0 5 0 8 2l-8-2Z" style="opacity:1"/>
  <path fill="#f6d2d4" d="M510 195c4 7 7 14 9 23h108l-54 2-54-1-9-24Z" style="opacity:1"/>
  <path fill="#414141" d="M548 256c6-7 14-13 23-17 17-2 35-2 54 0a5685 5685 0 0 0-49 46c-10-9-20-19-28-29Z" style="opacity:1"/>
  <path fill="#404040" d="m503 240 38 22a514 514 0 0 1 7-3l28 29-36 37h-50l-36-37 14-15 8-1c10-1 13-5 8-13 5-8 11-14 19-19Z" style="opacity:1"/>
  <path fill="#bdbec0" d="M73 241v7a282 282 0 0 0-1 1c-1-3 0-6 1-8Z" style="opacity:1"/>
  <path fill="#676767" d="m290 242-2 5 2 4a3713 3713 0 0 1 38 34l16-15-11-1h10c4-1 8 0 12 1h-9l-18 18 38 37h-3c-12-13-24-25-37-35a759 759 0 0 1-1-2l-40-40c1-3 2-5 5-6Z" style="opacity:1"/>
  <path fill="#6e6e6e" d="M323 249c-7-1-13 0-19 1l2-2c5-1 11-1 17 1Z" style="opacity:1"/>
  <path fill="#404040" d="m266 227-31 35c10 4 21 4 33 2l17-16 40 40a338 338 0 0 1-27 29l28-27c13 10 25 22 37 35H240l-36-37c20-22 41-42 62-61Z" style="opacity:1"/>
  <path fill="#6d6d6d" d="m501 239 2 1c-8 5-14 11-19 19l-2-2 19-18Z" style="opacity:1"/>
  <path fill="#424242" d="M629 237c6-2 9 1 9 8-2 5-4 11-8 15-19 6-30 18-35 36 0 2 1 3 3 4 10 7 20 15 29 24l-12 1-36-37c16-18 33-35 50-51Z" style="opacity:1"/>
  <path fill="#434343" d="M259 222c4 1 5 3 1 7l-56 56h-3l-22-22 45-1 2-4 33-36Z" style="opacity:1"/>
  <path fill="#404040" d="m177 263 24 25-37 37h-49l-36-37c6-8 13-15 20-21a2183 2183 0 0 1 78-4Z" style="opacity:1"/>
  <path fill="#6c6c6c" d="m137 264-5 1a2183 2183 0 0 0 5-1Z" style="opacity:1"/>
  <path fill="#939393" d="m85 268-11 2c3-2 7-3 11-2Z" style="opacity:1"/>
  <path fill="#b2b2b2" d="m320 267 23 2h-10l-14-1 1-1Z" style="opacity:1"/>
  <path fill="#434343" d="M85 268h4c2-1 4 0 6 1l-18 18-12-12v-3c2-2 5-3 9-2l11-2Z" style="opacity:1"/>
  <path fill="#404040" d="M355 270c27 0 54 0 81 2l15 16c-13 12-25 24-36 37h-49l-38-37 18-18h9Z" style="opacity:1"/>
  <path fill="#6c6c6c" d="M262 219c0 3 2 5 5 7l-1 1c-21 19-42 39-62 61l36 37h-2l-36-36c-12 11-24 23-35 36h-3l37-37-24-25 46-2c0-2 1-3 3-3l-2 4-45 1 22 22h3l56-56c4-4 3-6-1-7 0-2 1-3 3-3Z" style="opacity:1"/>
  <path fill="#434343" d="M62 275c5 3 9 7 14 13-13 12-25 24-36 37H15c1-3 3-5 6-6 6-3 12-6 19-7 6-13 13-26 22-37Z" style="opacity:1"/>
  <path fill="#676767" d="M629 237c-17 16-34 33-50 51l36 37h-3c-11-13-23-25-35-35-12 11-24 22-35 35h-2l36-37a1357 1357 0 0 1 0-3h3l46-46a373 373 0 0 0-53-2h57Z" style="opacity:1"/>
  <path fill="#3f3f3f" d="M238 325h-71c11-13 23-25 35-36l36 36Zm374 0h-70c11-13 23-24 35-35 12 10 24 22 35 35Z" style="opacity:1"/>
  <path fill="#6d6d6d" d="M436 272h2l14 14 13-12-19-2h30l-8 1-14 15 36 37h-2l-36-35c-12 11-24 22-35 35h-2c11-13 23-25 36-37l-15-16Z" style="opacity:1"/>
  <path fill="#3f3f3f" d="M488 325h-71c11-13 23-24 35-35l36 35Z" style="opacity:1"/>
  <path fill="#424242" d="M438 272h8l19 2-13 12-14-14Z" style="opacity:1"/>
  <path fill="#6c6c6c" d="M89 268c3-1 6-2 10-1-7 6-14 13-20 21l36 37h-2l-36-36c-12 11-24 23-35 36h-2c11-13 23-25 36-37-5-6-9-10-14-13 0-2 1-3 3-3v3l12 12 18-18c-2-1-4-2-6-1Z" style="opacity:1"/>
  <path fill="#3f3f3f" d="M113 325H42c11-13 23-25 35-36l36 36Z" style="opacity:1"/>
  <path fill="#898989" d="M363 325h252l12-1 2 1H15h348Z" style="opacity:1"/>
  <path fill="#444444" d="M532 347c5-1 10 0 14 3 3 12-2 16-14 13-5-3-7-7-5-12l5-4Z" style="opacity:1"/>
  <path fill="#434343" d="M129 349h20v78h-20v-78Z" style="opacity:1"/>
  <path fill="#404040" d="M163 349h19v78h-19v-78Z" style="opacity:1"/>
  <path fill="#414141" d="M377 349h19v28c5-7 12-10 21-8 6 1 11 5 14 12l1 46h-19l-1-37c-3-6-7-7-12-4l-3 5v36h-20v-78Z" style="opacity:1"/>
  <path fill="#404040" d="M6 353h43v16H25v14h22v16H25v28H6v-74Z" style="opacity:1"/>
  <path fill="#3f3f3f" d="M192 353h55v16h-18v58h-19v-58h-18v-16Z" style="opacity:1"/>
  <path fill="#414141" d="M309 403h-35c-1 1 0 2 1 4 1 3 3 5 7 6 7 1 15 0 22-3v14c-13 5-26 5-38-1-7-5-11-11-11-19-1-7 0-14 2-20 4-11 13-16 25-15 21 1 30 12 27 34Z" style="opacity:1"/>
  <path fill="#424242" d="M341 369c8-1 16 0 25 3l1 2-6 14c-18-8-25-2-22 17 1 2 2 4 5 6 7 1 14 0 20-3v16c-11 4-22 5-32 1-8-4-13-10-14-18-4-20 4-33 23-38Zm146 0c9-1 19 0 29 4l-5 12-16-3c-4-1-5 1-3 5l18 8c9 10 9 20-1 29-12 4-24 5-36 1-1-5-2-10-1-15l18 4 7-2v-4c-9-3-16-7-23-12-6-14-2-23 13-27Zm103 0c8-2 16 1 23 7 9-8 20-10 31-4l5 10 1 45h-19l-1-37c-4-8-9-8-14 0v37h-20l-1-37c-4-8-9-8-14 0v37h-20v-57c5-1 10 0 15 1l3 6c2-4 6-7 11-8Z" style="opacity:1"/>
  <path fill="#434343" d="M60 370h20v38c1 3 3 4 7 4 3 0 6-2 7-5l2-37h20v57l-15-1-3-6c-8 7-17 10-27 6-7-3-10-8-11-14v-42Zm467 0h20v57h-20v-57Z" style="opacity:1"/>
  <path fill="#f7f7f7" d="M281 382c6-1 9 2 10 9h-16c-1-5 1-8 6-9Z" style="opacity:1"/>
  <path fill="#747474" d="M257 384c-2 6-3 13-2 20-2-5-2-10-1-14 1-3 1-5 3-6Z" style="opacity:1"/>
  <path fill="#b6b6b6" d="m309 403-34 1v3c-1-2-2-3-1-4h35Z" style="opacity:1"/>
  <path fill="#646a67" d="M262 445c1 0 2 1 1 3-1-1-2-2-1-3Z" style="opacity:1"/>
  <path fill="#68676b" d="M471 445c1 0 2 1 1 3-1-1-2-2-1-3Z" style="opacity:1"/>
  <path fill="#8e909c" d="M490 443v23l-1-2 1-21Z" style="opacity:1"/>
  <path fill="#4d4e52" d="m185 446 1 4c6 0 6 0 0 1v12l5 2h-6v-14c-4-1-4-1 0-1v-4Z" style="opacity:1"/>
  <path fill="#696868" d="M395 450h10l2 3c0 17-1 17-2 0-3-3-5-3-8 0l-1 13c-1-6-2-11-1-16Z" style="opacity:1"/>
  <path fill="#626161" d="M513 450c2-1 5 0 8 1h-6c-2 1-3 3-1 5 3 0 6 2 8 6l-3 3c-3 1-6 1-8-1h9l-1-5-8-3c-1-3 0-5 2-6Z" style="opacity:1"/>
  <path fill="#4b4e51" d="M283 451c2-2 4-2 6 1v14l-1-13c-1-2-3-3-5-2Z" style="opacity:1"/>
  <path fill="#67686b" d="M344 450c7-1 10 2 9 9l-1 7-9-1c-3-3-3-6 2-8h6c0-6-3-7-7-5v-2Z" style="opacity:1"/>
  <path fill="#575858" d="m179 464-1-4-8-4c-1-3 0-5 2-6s5-1 8 1h-7l-2 3 9 6c1 1 0 3-1 4Z" style="opacity:1"/>
  <path fill="#555556" d="M249 445c3-1 6 0 9 1l-10 1c-2 2-2 4 1 6l8 5c1 3 0 5-2 7-4 1-7 1-10-1h8c4-2 4-4 2-7l-10-5c0-4 1-6 4-7Z" style="opacity:1"/>
  <path fill="#666466" d="m446 472 2-6h-10v-4c0-1 0-2 2-3-4-3-4-6 0-9 4-1 7-1 8 1 1 6-1 9-7 9-1 1-2 2-1 4 3-1 6 0 9 2 1 3 0 5-3 6Z" style="opacity:1"/>
  <path fill="#f3f6f3" d="M441 451c5 0 7 2 4 7-7 0-8-2-4-7Z" style="opacity:1"/>
  <path fill="#535050" d="m358 450 1 2c2-2 4-3 7-1l-6 2-2 13v-16Z" style="opacity:1"/>
  <path fill="#6f7070" d="m262 450 2 8-1 8c-1-6-2-11-1-16Z" style="opacity:1"/>
  <path fill="#545556" d="M328 450c6-2 9 1 10 8h-13c-1 2 0 3 2 5 3 2 6 2 10 1-11 4-15 0-13-10 1-2 2-4 4-4Z" style="opacity:1"/>
  <path fill="#f5f6f3" d="M329 451c4-1 6 1 7 6l-11-1c0-3 1-4 4-5Z" style="opacity:1"/>
  <path fill="#5a5657" d="M424 443v23c-1-3-2-3-3-1-4 1-7 0-9-2v-10c3-4 7-4 11-1l1-9Z" style="opacity:1"/>
  <path fill="#f4f5f4" d="M417 451c2-1 3 0 5 2v10c-5 2-8 1-9-5-1-3 1-6 4-7Z" style="opacity:1"/>
  <path fill="#666465" d="m490 443-1 21c-10 3-14 0-12-10 3-5 7-6 11-2l2-9Z" style="opacity:1"/>
  <path fill="#f7f8f6" d="M481 452c7-1 10 2 7 10-3 3-6 3-9 0-1-4 0-7 2-10Z" style="opacity:1"/>
  <path fill="#504f51" d="M499 450c6-1 9 1 9 8h-12c-1 2 0 3 2 5s5 2 9 1c-10 3-14 0-12-10 1-2 2-4 4-4Z" style="opacity:1"/>
  <path fill="#f4f5f3" d="M500 451c4-1 6 1 6 6h-9c-1-3 0-5 3-6Z" style="opacity:1"/>
  <path fill="#63625e" d="M212 450h6c2-1 3 0 5 2 3-3 6-3 9 0v14l-1-13c-2-2-5-2-7 0-1 17-2 17-3 0-2-2-4-2-6-1l-2 14c-1-6-2-11-1-16Z" style="opacity:1"/>
  <path fill="#eeeff0" d="M346 458h5c0 5-2 7-7 6-2-3-1-5 2-6Z" style="opacity:1"/>
  <path fill="#5b5a5e" d="m383 445 9 20-1 1-3-7c-3-2-6-2-9 0l-4 7c2-8 4-15 8-21Z" style="opacity:1"/>
  <path fill="#f5f6f5" d="m383 448 4 8h-7l3-8Z" style="opacity:1"/>
  <path fill="#646367" d="m283 451-2 2c-1 17-2 17-3 0-2-2-5-2-7 0l-1 13c-2-6-2-11 0-16h5c2-1 3 0 5 2l3-1Z" style="opacity:1"/>
  <path fill="#5f5e5e" d="M309 445c3-1 6 0 10 1-13-2-17 4-13 16 8 5 12 3 12-6l-6-1h8l-1 10c-14 3-19-2-16-15l6-5Z" style="opacity:1"/>
  <path fill="#595a5a" d="M140 445c3-1 6 0 9 1-12-1-16 3-13 15l3 2 10 1c-12 3-17-2-15-13 1-3 3-5 6-6Z" style="opacity:1"/>
  <path fill="#504d4d" d="m153 450 1 12c3 3 6 3 9 0l1-12v16l-1-2c-3 2-7 2-10 0v-14Z" style="opacity:1"/>
  <path fill="#5a5959" d="M198 450c7-1 10 2 9 10-1 5-4 7-9 5-2 0-3-2-4-3v-9c1-2 2-3 4-3Z" style="opacity:1"/>
  <path fill="#f3f4f1" d="M199 451c6 0 8 4 6 11-6 4-9 3-10-4 0-4 1-6 4-7Z" style="opacity:1"/>
  <path fill="#6f6e73" d="m471 450 2 8-1 8c-1-6-2-11-1-16Z" style="opacity:1"/>
  <path fill="#666666" d="m453 450 2 13h8l2-13v16l-9-1-3-2v-13Z" style="opacity:1"/>
  <path fill="#51504f" d="m179 464-1 1c-4 1-7 1-9-1h10Z" style="opacity:1"/>
  <path fill="#f4f6f3" d="M438 466h10l-2 6c-6 1-9-1-8-6Z" style="opacity:1"/>
  <path fill="#5f5d5b" d="M438 466c-1 5 2 7 8 6-3 1-6 1-9-1-2-2-2-4 1-5Z" style="opacity:1"/>
  <path fill="#424242" d="m230 511 38 1v10c-7 0-9 3-6 9-1 11-7 17-18 19l-13 1c-1 1 0 3 2 4l22 1c13 5 16 14 9 27-6 6-14 10-23 10-11 2-21 0-30-6-5-11-2-18 9-22-8-7-7-13 2-18-8-6-11-13-9-22 3-8 8-13 17-14Z" style="opacity:1"/>
  <path fill="#414141" d="M329 532v13c-12-1-23 0-34 1 0 4 2 7 7 9 7 1 15 0 23-3v14c-14 5-27 5-39-1-11-9-14-21-11-34 4-14 12-20 26-20 12-1 21 4 27 15l1 6Zm30-21c8-1 16 0 25 3 3 2 5 6 7 10l1 45-13-1-5-6c-8 8-18 9-28 5-7-6-9-14-7-22 4-7 10-11 19-12h15c0-4-1-6-4-8-7-1-13 0-18 4l-2-1-4-12c4-3 9-4 14-5Z" style="opacity:1"/>
  <path fill="#434343" d="M436 511h10l-1 19h-14c-3 1-4 2-5 5v34h-20v-57c5-1 10 0 15 1l3 8c3-5 7-8 12-10Z" style="opacity:1"/>
  <path fill="#f6f6f6" d="M235 522c7 0 10 4 8 12-1 4-4 6-8 5l-3-3c-1-6 0-10 3-14Z" style="opacity:1"/>
  <path fill="#f5f5f5" d="M301 524c6-1 10 2 11 9h-17c0-5 2-8 6-9Z" style="opacity:1"/>
  <path fill="#f6f6f6" d="M364 544h9c1 9-3 12-12 11-2-2-3-5-2-8l5-3Z" style="opacity:1"/>
  <path fill="#aaaaaa" d="m329 532 1 14h-35c11-1 22-2 34-1v-13Z" style="opacity:1"/>
  <path fill="#f4f4f4" d="M230 571c6-1 12 0 19 1 2 2 2 4 0 6-7 4-14 4-21 2-3-4-3-7 2-9Z" style="opacity:1"/>
</svg>
